# xmcd
#
# Track frame offsets:
# 150
# 30070
# 63873
# 95649
# 120062
# 152420
# 173867
# 204259
# 240331
# 270663
# 303832
#
# Disc length: 4474 seconds
#
# Revision: 0
# Processed by: cddbd v1.4PL0 Copyright (c) Steve Scherf et al.
# Submitted via: Audion 2.5.0 (http://www.panic.com/audion/)
#
DISCID=7111780b
DTITLE=as - ++
DYEAR=1900
DGENRE=
TTITLE0=Analogic Diturbance dusty noises
TTITLE1=Bossraiders raveolution
TTITLE2=Bbe free
TTITLE3=Brain Ovulation only kick
TTITLE4=Dj Zany ardesso
TTITLE5=Donkey Rollers strike again
TTITLE6=Faithless tarantula
TTITLE7=Nature One Inc summer sound system
TTITLE8=Reeloop fucking society
TTITLE9=Terence earth song
TTITLE10=windi &wawebit
EXTD=
EXTT0=
EXTT1=
EXTT2=
EXTT3=
EXTT4=
EXTT5=
EXTT6=
EXTT7=
EXTT8=
EXTT9=
EXTT10=
PLAYORDER=
